<svg xmlns="http://www.w3.org/2000/svg" width="64" height="64" viewBox="0 0 64 64">
  <rect width="64" height="64" rx="14" fill="#002C44"/>
  <g transform="translate(9 13.5) scale(0.66)">
    <g fill="#FFFFFF">
      <circle cx="9" cy="30" r="4.5"/>
      <path d="M2 54c3-9 7-15 15-18-2 7-7 13-15 18z"/>
      <circle cx="31" cy="13" r="6.5"/>
      <path d="M16 23c7 5 14 7 21 4L53 9c-4 16-12 30-27 44 5-11 4-21-10-30z"/>
    </g>
    <path fill="#5CE1E6" d="M60 0l1.8 4.6 4.9.3-3.8 3.1 1.2 4.8L60 10.1l-4.1 2.7 1.2-4.8-3.8-3.1 4.9-.3z"/>
  </g>
</svg>
